<svg viewBox="0 0 24 24" version="1.1" width="24" height="24"
   xmlns="http://www.w3.org/2000/svg">
   <defs>
      <style>.cls-1{fill:#fff;}.cls-2{fill:#e0684b;}.cls-3{fill:#bb464b;}.cls-4{fill:#e0ded8;}.cls-5{fill:#d5d2ca;}</style>
   </defs>
   <title>Babylon.js Logo</title>
   <path class="cls-1" d="M 12.0005,0 1.60758,5.99882 V 17.9965 L 12.0005,23.9953 22.3924,17.9965 V 5.99882 Z" />
   <polygon class="cls-2" points="19.139143,4.1218843 16.010526,5.9284532 19.263734,7.8065465 22.392352,5.9999776 " />
   <polygon class="cls-2" points="15.12916,1.8065689 11.999389,0 1.60758,5.9999776 4.7361974,7.8065465 " />
   <polygon class="cls-2" points="11.999389,15.756142 15.252597,13.878049 11.999389,11.999955 8.7473342,13.878049 " />
   <polygon class="cls-3" points="4.7361974,16.193364 4.7361974,7.8065465 1.60758,5.9999776 1.60758,17.999933 11.999389,23.99991 22.392352,17.999933 22.392352,5.9999776 19.263734,7.8065465 19.263734,16.193364 11.999389,20.386773 " />
   <polygon class="cls-3" points="8.7473342,10.121862 8.7473342,13.878049 11.999389,11.999955 15.252597,13.878049 15.252597,10.121862 11.999389,8.2437685 " />
   <polygon class="cls-4" points="15.252597,10.121862 15.252597,13.878049 11.999389,15.756142 11.999389,20.386773 19.263734,16.193364 19.263734,7.8065465 " />
   <polygon class="cls-5" points="8.7473342,10.121862 8.7473342,13.878049 11.999389,15.756142 11.999389,20.386773 4.7361974,16.193364 4.7361974,7.8065465 " />
</svg>
